<svg width="66" height="23" viewBox="0 0 66 23" fill="none" xmlns="http://www.w3.org/2000/svg">
<path d="M4.71238 8.724C4.40438 8.724 4.12571 8.79 3.87638 8.922C3.62704 9.054 3.41438 9.24467 3.23838 9.494C3.06971 9.74333 2.94138 10.044 2.85338 10.396C2.76538 10.748 2.72138 11.144 2.72138 11.584C2.72138 12.178 2.79471 12.6877 2.94138 13.113C3.08804 13.531 3.31171 13.8537 3.61238 14.081C3.91304 14.3083 4.29071 14.422 4.74538 14.422C5.06071 14.422 5.36871 14.389 5.66938 14.323C5.97004 14.2497 6.27438 14.1543 6.58238 14.037V15.236C6.28171 15.368 5.97004 15.4633 5.64738 15.522C5.33204 15.5807 4.97638 15.61 4.58038 15.61C3.81038 15.61 3.17604 15.445 2.67738 15.115C2.17871 14.7777 1.80471 14.3083 1.55538 13.707C1.31338 13.0983 1.19238 12.387 1.19238 11.573C1.19238 10.979 1.26938 10.4363 1.42338 9.945C1.57738 9.45367 1.80471 9.02833 2.10538 8.669C2.40604 8.30967 2.77638 8.031 3.21638 7.833C3.65638 7.635 4.15871 7.536 4.72338 7.536C5.09738 7.536 5.47504 7.58367 5.85638 7.679C6.24504 7.767 6.58604 7.89167 6.87938 8.053L6.38438 9.208C6.12771 9.08333 5.86004 8.97333 5.58138 8.878C5.31004 8.77533 5.02038 8.724 4.71238 8.724ZM13.7831 15.5L13.1781 13.421H10.4941L9.88908 15.5H8.30508L10.9451 7.613H12.7161L15.3671 15.5H13.7831ZM12.1991 10.187C12.1697 10.0697 12.1294 9.93033 12.0781 9.769C12.0341 9.60033 11.9901 9.428 11.9461 9.252C11.9094 9.076 11.8727 8.911 11.8361 8.757C11.8067 8.933 11.7701 9.109 11.7261 9.285C11.6821 9.45367 11.6381 9.615 11.5941 9.769C11.5574 9.923 11.5207 10.0623 11.4841 10.187L10.8681 12.211H12.8261L12.1991 10.187ZM19.5757 7.646C20.2284 7.646 20.7674 7.73033 21.1927 7.899C21.618 8.06767 21.9334 8.32433 22.1387 8.669C22.344 9.00633 22.4467 9.43533 22.4467 9.956C22.4467 10.3373 22.3844 10.6637 22.2597 10.935C22.135 11.2063 21.9664 11.4337 21.7537 11.617C21.5484 11.793 21.3247 11.936 21.0827 12.046L23.1947 15.5H21.5227L19.8177 12.398H18.8607V15.5H17.3867V7.646H19.5757ZM19.5097 8.823H18.8607V11.243H19.5317C19.847 11.243 20.1074 11.1953 20.3127 11.1C20.5254 11.0047 20.683 10.8653 20.7857 10.682C20.8957 10.4987 20.9507 10.2713 20.9507 10C20.9507 9.714 20.8994 9.48667 20.7967 9.318C20.694 9.142 20.5364 9.01733 20.3237 8.944C20.111 8.86333 19.8397 8.823 19.5097 8.823ZM28.0268 15.5H26.5418V8.834H24.4958V7.646H30.0618V8.834H28.0268V15.5Z" fill="black"/>
<g clip-path="url(#clip0_5_6093)">
<path d="M46.922 3.25832C45.658 3.25832 44.6296 4.36698 44.6296 5.72971V5.88766H49.2143V5.72971C49.2143 4.36698 48.186 3.25832 46.922 3.25832ZM46.922 2.25955C48.7396 2.25955 50.2131 3.8132 50.2131 5.72971V6.88642H43.6309V5.72971C43.6309 3.8132 45.1043 2.25955 46.922 2.25955Z" fill="black"/>
<path d="M41.2656 17.2411V5.88008H52.8294V17.2411H41.2656Z" stroke="black" stroke-width="0.998768"/>
</g>
<path d="M63.8611 11.562C63.8611 12.2 63.8171 12.7683 63.7291 13.267C63.6411 13.7657 63.4908 14.191 63.2781 14.543C63.0728 14.8877 62.8051 15.1517 62.4751 15.335C62.1525 15.5183 61.7565 15.61 61.2871 15.61C60.7078 15.61 60.2275 15.4487 59.8461 15.126C59.4721 14.8033 59.1935 14.3413 59.0101 13.74C58.8341 13.1313 58.7461 12.4053 58.7461 11.562C58.7461 10.7187 58.8268 9.99633 58.9881 9.395C59.1568 8.79367 59.4281 8.33167 59.8021 8.009C60.1761 7.68633 60.6748 7.525 61.2981 7.525C61.8848 7.525 62.3651 7.68633 62.7391 8.009C63.1205 8.32433 63.4028 8.78633 63.5861 9.395C63.7695 9.99633 63.8611 10.7187 63.8611 11.562ZM60.2091 11.573C60.2091 12.211 60.2421 12.7463 60.3081 13.179C60.3741 13.6043 60.4878 13.927 60.6491 14.147C60.8105 14.3597 61.0268 14.466 61.2981 14.466C61.5695 14.466 61.7821 14.3597 61.9361 14.147C62.0975 13.9343 62.2148 13.6117 62.2881 13.179C62.3615 12.7463 62.3981 12.211 62.3981 11.573C62.3981 10.9277 62.3615 10.3923 62.2881 9.967C62.2148 9.53433 62.0975 9.21167 61.9361 8.999C61.7821 8.779 61.5695 8.669 61.2981 8.669C61.0268 8.669 60.8105 8.779 60.6491 8.999C60.4878 9.21167 60.3741 9.53067 60.3081 9.956C60.2421 10.3813 60.2091 10.9203 60.2091 11.573Z" fill="black"/>
<defs>
<clipPath id="clip0_5_6093">
<rect width="12.5625" height="15.5" fill="white" transform="translate(40.7656 2.25)"/>
</clipPath>
</defs>
</svg>
