<svg width="26" height="23" viewBox="0 0 26 23" fill="none" xmlns="http://www.w3.org/2000/svg">
<g clip-path="url(#clip0_5_6102)">
<path d="M1.73325 3.05416V15.0163L7.05052 10.9467L11.8449 14.9149V3.05416H1.73325ZM0.734375 2.05528H12.8438V17.0385L7.02614 12.2231L0.734375 17.0385V2.05528Z" fill="black"/>
</g>
<path d="M23.3768 11.1089C23.3768 11.7469 23.3328 12.3152 23.2448 12.8139C23.1568 13.3125 23.0064 13.7379 22.7938 14.0899C22.5884 14.4345 22.3208 14.6985 21.9908 14.8819C21.6681 15.0652 21.2721 15.1569 20.8028 15.1569C20.2234 15.1569 19.7431 14.9955 19.3618 14.6729C18.9878 14.3502 18.7091 13.8882 18.5258 13.2869C18.3498 12.6782 18.2618 11.9522 18.2618 11.1089C18.2618 10.2655 18.3424 9.54321 18.5038 8.94187C18.6724 8.34054 18.9438 7.87854 19.3178 7.55587C19.6918 7.23321 20.1904 7.07187 20.8138 7.07187C21.4004 7.07187 21.8808 7.23321 22.2548 7.55587C22.6361 7.87121 22.9184 8.33321 23.1018 8.94187C23.2851 9.54321 23.3768 10.2655 23.3768 11.1089ZM19.7248 11.1199C19.7248 11.7579 19.7578 12.2932 19.8238 12.7259C19.8898 13.1512 20.0034 13.4739 20.1648 13.6939C20.3261 13.9065 20.5424 14.0129 20.8138 14.0129C21.0851 14.0129 21.2978 13.9065 21.4518 13.6939C21.6131 13.4812 21.7304 13.1585 21.8038 12.7259C21.8771 12.2932 21.9138 11.7579 21.9138 11.1199C21.9138 10.4745 21.8771 9.93921 21.8038 9.51387C21.7304 9.08121 21.6131 8.75854 21.4518 8.54587C21.2978 8.32587 21.0851 8.21587 20.8138 8.21587C20.5424 8.21587 20.3261 8.32587 20.1648 8.54587C20.0034 8.75854 19.8898 9.07754 19.8238 9.50287C19.7578 9.92821 19.7248 10.4672 19.7248 11.1199Z" fill="black"/>
<defs>
<clipPath id="clip0_5_6102">
<rect width="12.1094" height="15" fill="white" transform="translate(0.734375 2.04688)"/>
</clipPath>
</defs>
</svg>
